<svg width="285" height="279" viewBox="0 0 285 279" fill="none" xmlns="http://www.w3.org/2000/svg">
<g clip-path="url(#clip0_7_2376)">
<rect width="284" height="278" rx="2" fill="#F2F5F7"/>
<rect x="0.5" y="0.5" width="283" height="277" rx="1.5" stroke="#C2D1D9"/>
</g>
<g clip-path="url(#clip1_7_2376)">
<path d="M12 11L271.675 266.475" stroke="#C2D1D9"/>
<path d="M271.676 11L12.0005 266.475" stroke="#C2D1D9"/>
</g>
<rect x="108" y="111" width="68" height="56" rx="4" fill="#F2F5F7"/>
<path fill-rule="evenodd" clip-rule="evenodd" d="M172 111H112C109.791 111 108 112.791 108 115V163C108 165.209 109.791 167 112 167H172C174.209 167 176 165.209 176 163V115C176 112.791 174.209 111 172 111ZM112 163V115H172V163H112Z" fill="#C2D1D9"/>
<path fill-rule="evenodd" clip-rule="evenodd" d="M119 127.5C119 131.642 122.358 135 126.5 135C130.642 135 134 131.642 134 127.5C134 123.358 130.642 120 126.5 120C122.358 120 119 123.358 119 127.5ZM130 127.5C130 129.433 128.433 131 126.5 131C124.567 131 123 129.433 123 127.5C123 125.567 124.567 124 126.5 124C128.433 124 130 125.567 130 127.5Z" fill="#C2D1D9"/>
<path d="M122.408 158.42C121.624 159.198 120.357 159.193 119.58 158.408C118.802 157.624 118.807 156.357 119.592 155.58L136.041 139.272L145.313 147.336C146.146 148.061 146.234 149.324 145.509 150.158C144.784 150.991 143.521 151.079 142.687 150.354L136.219 144.728L122.408 158.42Z" fill="#C2D1D9"/>
<path d="M137.414 158.414C136.633 159.195 135.367 159.195 134.586 158.414C133.805 157.633 133.805 156.367 134.586 155.586L160.908 129.261L175.319 141.905C176.149 142.634 176.232 143.897 175.503 144.728C174.775 145.558 173.511 145.64 172.681 144.912L161.087 134.739L137.414 158.414Z" fill="#C2D1D9"/>
<defs>
<clipPath id="clip0_7_2376">
<rect width="284" height="278" fill="white"/>
</clipPath>
<clipPath id="clip1_7_2376">
<rect width="260" height="256" fill="white" transform="translate(12 11)"/>
</clipPath>
</defs>
</svg>
